<svg width="323" height="46" viewBox="0 0 323 46" fill="none" xmlns="http://www.w3.org/2000/svg">
<path d="M32.456 8.9165L27.9965 7.77344L26.0737 9.06413L27.5868 12.8005L32.456 8.9165Z" fill="white"/>
<path d="M28.6873 20.0833L24.3599 9.37012L16.8263 11.0878L12.2378 18.384L17.7363 15.5803L28.6873 20.0833Z" fill="white"/>
<path d="M29.5414 0.239014C28.2662 0.208366 26.989 0.286255 25.7247 0.472763H25.735C14.9669 2.05075 6.69991 11.4134 6.69991 22.6054C6.69991 23.8946 6.81186 25.1575 7.02226 26.3867C4.63271 24.4985 3.41606 22.5961 3.79723 20.9327C4.08479 19.6774 5.25193 18.6952 7.08506 18.0037C3.43438 18.6793 1.06185 20.0044 0.621383 21.9257C0.0374337 24.4739 2.96838 27.5538 8.1011 30.3906C8.13371 30.4777 8.16831 30.5636 8.20176 30.65C11.3602 39.1157 19.5252 45.1465 29.1026 45.1465C35.2607 45.1465 40.8357 42.6537 44.8711 38.6234C50.407 38.2325 54.1418 36.748 54.7061 34.2856C55.1269 32.4499 53.7222 30.3385 50.9859 28.2406C52.1698 29.5697 52.7029 30.8687 52.4327 32.0477C52.0473 33.7294 50.0847 34.9216 47.0542 35.5796C47.9386 34.3655 48.6844 33.0823 49.2923 31.7514L49.3273 31.7786C49.7269 30.8971 50.0697 29.9841 50.3531 29.0457L50.3237 29.0336C50.4233 28.709 50.5147 28.3825 50.599 28.0546L50.6205 28.0832C51.0294 26.4688 51.2599 24.7839 51.2943 23.0508C51.2949 23.021 51.2951 22.9911 51.2958 22.9612C51.2975 22.8428 51.3011 22.7244 51.3011 22.6054C51.3011 22.5846 51.3007 22.5641 51.3004 22.5434C51.3108 16.8302 49.1344 11.1138 44.7693 6.75465C40.5526 2.54344 35.067 0.371819 29.5414 0.239014ZM29.0363 2.00052C34.1489 2.00052 38.8263 3.86053 42.4273 6.93981C42.438 6.94885 42.4486 6.95779 42.459 6.96684C42.5451 7.04065 42.6302 7.1152 42.7146 7.19034C43.0015 7.4464 43.2835 7.71099 43.5587 7.98611C46.2926 10.7166 48.0967 14.0233 48.9726 17.5149L42.2616 14.3498L45.1165 11.7784L34.4917 9.50185L28.2485 14.4473C28.7516 14.3528 34.4406 13.6141 34.4406 13.6141L38.4552 16.132L34.5552 16.9106L28.5335 15.153L30.8882 20.9829L48.7498 28.374C48.5194 29.1537 48.2414 29.9223 47.9169 30.6756L45.6962 28.9525L31.7815 23.1948L42.8981 30.1668L46.0244 34.1124C45.5894 34.7493 45.1155 35.3674 44.6011 35.9626C44.3707 35.9879 44.1363 36.011 43.8984 36.0315L44.1234 34.7188L41.801 31.3454L30.47 24.3967L37.385 31.3525L37.592 36.0783C36.6716 36.0243 35.7233 35.9458 34.7519 35.8425L35.5364 31.9083L27.262 23.5985L30.3633 30.3164L29.0715 34.9949C28.2919 34.8466 27.5045 34.6843 26.7105 34.5075L28.4983 30.3417L25.3962 23.2667L24.4665 27.4448L21.4886 33.15C16.5195 31.6642 12.2341 29.7986 9.11802 27.8445C8.67308 26.1625 8.43388 24.397 8.43388 22.5753C8.43388 11.2122 17.6579 2.00052 29.0363 2.00052ZM49.3667 19.4912C49.7002 21.731 49.6632 24.0147 49.2556 26.2446L44.5993 20.0011L49.3667 19.4912ZM10.501 31.5666C10.501 31.5666 27.2243 39.7136 41.8159 38.595C41.8159 38.595 34.8348 44.2246 25.7971 42.9966C16.2919 41.7049 10.501 31.5666 10.501 31.5666Z" fill="white"/>
<path d="M73.6167 6.81753L70.7819 38.3691H64.8462L67.6812 6.81753H73.6167Z" fill="white"/>
<path d="M86.8172 12.6398C86.9058 11.8411 86.6764 11.1488 86.1304 10.5634C85.5835 9.97882 84.8828 9.68583 84.0265 9.68583H82.1659L81.0143 22.3578H82.8747C83.7013 22.3578 84.4395 22.0654 85.0895 21.4802C85.7386 20.8956 86.1083 20.2033 86.1969 19.4039L86.8172 12.6398ZM92.6198 13.4532L92.1771 18.5904C92.0289 20.4173 91.2246 21.9726 89.7628 23.2569C88.3012 24.5412 86.6247 25.1833 84.7353 25.1833H80.7484L79.5968 38.3691H73.6611L76.2745 9.68583H74.5471L74.8127 6.81753H86.3741C88.2638 6.81753 89.8138 7.46702 91.0252 8.76524C92.236 10.0644 92.7675 11.6271 92.6198 13.4532Z" fill="white"/>
<path d="M113.173 13.5817L111.357 33.9169C111.269 34.9442 111.696 35.4727 112.642 35.5006L112.376 38.3691H109.984C108.536 38.3691 107.4 38.0126 106.573 37.2988C105.627 36.5 105.229 35.3722 105.377 33.9169L107.238 13.5817C107.355 12.4117 107.186 11.4985 106.728 10.8416C106.27 10.1856 105.687 9.85706 104.979 9.85706L102.409 9.89986L99.8398 38.3691H93.9043L96.4733 9.68583H94.7015L94.9673 6.81753H105.244C107.606 6.81753 109.526 7.37399 111.003 8.4873C112.656 9.71457 113.38 11.4131 113.173 13.5817Z" fill="white"/>
<path d="M143.164 7.31085L142.909 10.1675H136.289C135.776 10.1675 135.321 10.4019 134.922 10.8699C134.524 11.3411 134.295 11.9454 134.239 12.6829L132.489 32.6837C132.375 33.8213 132.63 34.6878 133.258 35.2848C133.77 35.7691 134.467 35.9814 135.349 35.925C136.202 35.8679 136.965 35.5412 137.633 34.9442C138.302 34.3464 138.682 33.5943 138.765 32.6837H141.627C141.483 34.3326 140.764 35.7535 139.469 36.9483C138.174 38.1423 136.686 38.7393 135.007 38.7393C133.699 38.7393 132.788 38.696 132.275 38.611C130.652 38.3562 129.328 37.7307 128.304 36.7344C127.165 35.6261 126.666 34.2762 126.81 32.6837L128.475 13.4097C128.645 11.5036 129.457 9.98297 130.909 8.84618C132.275 7.82208 133.898 7.31085 135.776 7.31085H143.164Z" fill="white"/>
<path d="M162.935 7.31085L160.629 33.9634V34.3889C160.629 35.3852 161.227 35.8818 162.421 35.8818L162.167 38.7393H159.647C158.081 38.7393 156.856 38.3268 155.975 37.5028C154.466 38.3268 152.827 38.7393 151.063 38.7393C149.213 38.7393 147.632 38.2852 146.325 37.3746C144.843 36.3513 144.104 34.9442 144.104 33.1533V32.6837L146.067 10.1675H144.53L144.787 7.35332H152.003L149.825 32.3415V32.8119C149.825 34.7172 150.608 35.6686 152.173 35.6686C152.999 35.6686 153.683 35.2995 154.224 34.5604C154.707 33.9054 154.977 33.1672 155.036 32.3415L157.169 7.31085H162.935Z" fill="white"/>
<path d="M176.811 13.1092C176.897 12.2851 176.726 11.5893 176.3 11.0193C175.872 10.4517 175.26 10.1667 174.462 10.1667C173.694 10.1667 173.053 10.4517 172.541 11.0193C172.029 11.5893 171.729 12.2851 171.645 13.1092L170.663 24.1978H175.83L176.811 13.1092ZM182.449 13.9193L180.654 34.3032C180.569 35.3272 180.982 35.854 181.893 35.8818L181.637 38.7393H179.375C177.951 38.7393 176.84 38.384 176.044 37.6727C175.16 36.8773 174.789 35.7535 174.933 34.3032L175.573 27.0545H170.406L169.382 38.7393H163.703L165.88 13.9193C166.079 11.6457 167.176 9.92662 169.168 8.75961C170.763 7.7935 172.612 7.31004 174.72 7.31004C176.826 7.31004 178.604 7.7935 180.057 8.75961C181.85 9.95358 182.647 11.6751 182.449 13.9193Z" fill="white"/>
<path d="M202.39 7.31085L200.084 33.9634V34.3889C200.084 35.3852 200.683 35.8818 201.877 35.8818L201.622 38.7393H199.103C197.536 38.7393 196.311 38.3268 195.43 37.5028C193.921 38.3268 192.284 38.7393 190.518 38.7393C188.668 38.7393 187.088 38.2852 185.78 37.3746C184.298 36.3513 183.56 34.9442 183.56 33.1533V32.6837L185.523 10.1675H183.986L184.243 7.35332H191.458L189.281 32.3415V32.8119C189.281 34.7172 190.064 35.6686 191.63 35.6686C192.455 35.6686 193.139 35.2995 193.679 34.5604C194.162 33.9054 194.433 33.1672 194.491 32.3415L196.624 7.31085H202.39Z" fill="white"/>
<path d="M223.996 7.31085L221.649 34.304C221.563 35.3566 222.033 35.8818 223.058 35.8818L222.801 38.7393H220.367C218.97 38.7393 217.862 38.362 217.036 37.6098C216.211 36.8569 215.854 35.7535 215.969 34.304L216.823 24.4534H211.401L210.161 38.7393H204.439L206.958 10.1675H205.337L205.593 7.31085H212.894L211.655 21.5959H217.036L218.275 7.31085H223.996Z" fill="white"/>
<path d="M240.478 7.3525L240.223 10.1667H236.124L233.647 38.7393H227.926L230.444 10.1667H226.345L226.602 7.3525H240.478Z" fill="white"/>
<path d="M258.499 3.21693L250.768 6.79881L249.53 4.24021L257.302 0.614231L258.499 3.21693ZM256.063 7.31086L255.808 10.1675H250.044C249.217 10.1675 248.491 10.4591 247.865 11.0422C247.24 11.6245 246.897 12.3145 246.842 13.1092L246.115 21.5959H253.246L253.031 24.4534H245.859L245.09 32.9818C245.004 33.7789 245.225 34.4681 245.751 35.0496C246.279 35.6327 246.954 35.925 247.781 35.925H253.545L253.289 38.7393H245.517C243.695 38.7393 242.194 38.0925 241.012 36.7981C239.832 35.5045 239.326 33.9487 239.496 32.1292L241.076 13.9193C241.247 12.1014 242.037 10.544 243.447 9.25124C244.855 7.95765 246.47 7.31086 248.294 7.31086H256.063Z" fill="white"/>
<path d="M285.485 14.0475L283.777 34.304C283.692 35.3281 284.12 35.854 285.059 35.8818L284.802 38.7393H282.454C281.058 38.7393 279.948 38.3701 279.122 37.6302C278.296 36.892 277.941 35.7821 278.056 34.304L279.807 13.7078C280.005 11.4897 279.278 10.3807 277.628 10.3807H275.151L272.632 38.7393H266.91L269.131 13.7078C269.329 11.4897 268.576 10.3807 266.867 10.3807H264.39L261.914 38.7393H256.192L258.711 10.1675H257.046L257.302 7.31085H277.884C280.133 7.31085 281.97 7.86536 283.393 8.97357C284.958 10.1953 285.656 11.8866 285.485 14.0475Z" fill="white"/>
<path d="M300.303 13.1092C300.36 12.3137 300.132 11.6245 299.621 11.0422C299.107 10.4591 298.452 10.1667 297.656 10.1667C296.857 10.1667 296.147 10.4591 295.52 11.0422C294.893 11.6245 294.538 12.3137 294.453 13.1092L292.702 32.9818C292.617 33.7789 292.836 34.4673 293.363 35.0496C293.89 35.6327 294.565 35.9242 295.392 35.9242C296.217 35.9242 296.943 35.6408 297.57 35.0716C298.196 34.5032 298.537 33.8066 298.595 32.9818L300.303 13.1092ZM305.94 13.9193L304.317 32.1292C304.146 34.0051 303.335 35.5551 301.884 36.7768C300.345 38.0843 298.409 38.7393 296.076 38.7393H294.196C291.891 38.7393 290.081 38.0843 288.773 36.7768C287.492 35.5551 286.936 34.0051 287.107 32.1292L288.688 13.9193C288.859 12.0434 289.706 10.473 291.229 9.20796C292.751 7.94296 294.666 7.31004 296.972 7.31004H298.809C301.114 7.31004 302.922 7.94296 304.233 9.20796C305.54 10.473 306.111 12.0434 305.94 13.9193Z" fill="white"/>
<path d="M322.293 7.31085L322.038 10.1675H315.419C314.906 10.1675 314.449 10.4019 314.052 10.8699C313.654 11.3411 313.425 11.9454 313.369 12.6829L311.617 32.6837C311.504 33.8213 311.76 34.6878 312.386 35.2848C312.9 35.7691 313.596 35.9814 314.479 35.925C315.333 35.8679 316.094 35.5412 316.763 34.9442C317.432 34.3464 317.81 33.5943 317.895 32.6837H320.755C320.613 34.3326 319.895 35.7535 318.599 36.9483C317.303 38.1423 315.817 38.7393 314.137 38.7393C312.828 38.7393 311.917 38.696 311.406 38.611C309.782 38.3562 308.458 37.7307 307.435 36.7344C306.295 35.6261 305.796 34.2762 305.94 32.6837L307.603 13.4097C307.775 11.5036 308.586 9.98297 310.038 8.84618C311.406 7.82208 313.027 7.31085 314.906 7.31085H322.293Z" fill="white"/>
</svg>
