<svg width="393" height="331" viewBox="0 0 393 331" fill="none" xmlns="http://www.w3.org/2000/svg">
<path d="M231.227 63.8852L198.91 55.4753L184.977 64.9713L195.941 92.4613L231.227 63.8852Z" fill="white"/>
<path d="M203.917 146.045L172.558 67.2237L117.964 79.8612L84.7129 133.542L124.559 112.914L203.917 146.045Z" fill="white"/>
<path d="M210.107 0.047821C200.866 -0.177673 191.611 0.395386 182.449 1.76758H182.523C104.49 13.3774 44.582 82.2617 44.582 164.606C44.582 174.091 45.3933 183.383 46.9179 192.426C29.6017 178.534 20.785 164.537 23.5472 152.299C25.6311 143.063 34.0889 135.837 47.373 130.749C20.9177 135.72 3.72479 145.469 0.532862 159.605C-3.69883 178.353 17.5408 201.013 54.7359 221.885C54.9722 222.525 55.223 223.157 55.4654 223.793C78.3533 286.078 137.523 330.449 206.927 330.449C251.553 330.449 291.953 312.109 321.196 282.456C361.313 279.58 388.378 268.658 392.467 250.541C395.517 237.036 385.337 221.501 365.508 206.066C374.088 215.844 377.951 225.402 375.993 234.076C373.2 246.449 358.978 255.221 337.017 260.062C343.425 251.129 348.83 241.688 353.235 231.896L353.489 232.097C356.385 225.611 358.869 218.894 360.922 211.99L360.709 211.9C361.431 209.512 362.093 207.11 362.704 204.697L362.861 204.908C365.823 193.03 367.494 180.634 367.743 167.883C367.747 167.663 367.749 167.444 367.754 167.224C367.766 166.352 367.793 165.481 367.793 164.606C367.793 164.453 367.789 164.302 367.787 164.149C367.863 122.116 352.091 80.0573 320.459 47.9857C289.901 17.0023 250.149 1.02493 210.107 0.047821ZM206.446 13.0079C243.496 13.0079 277.391 26.6927 303.487 49.3481C303.564 49.4146 303.641 49.4804 303.716 49.5469C304.34 50.09 304.957 50.6385 305.569 51.1913C307.648 53.0753 309.691 55.0219 311.686 57.0461C331.497 77.1351 344.571 101.464 350.918 127.153L302.286 103.866L322.974 84.9473L245.98 68.198L200.737 104.584C204.383 103.888 245.609 98.4533 245.609 98.4533L274.702 116.978L246.44 122.707L202.803 109.775L219.867 152.668L349.304 207.047C347.634 212.784 345.62 218.439 343.268 223.981L327.176 211.303L226.34 168.942L306.899 220.238L329.554 249.267C326.401 253.953 322.967 258.5 319.24 262.88C317.57 263.066 315.871 263.236 314.147 263.387L315.778 253.728L298.948 228.909L216.836 177.785L266.947 228.961L268.447 263.731C261.777 263.334 254.905 262.756 247.866 261.996L253.551 233.051L193.588 171.912L216.063 221.339L206.701 255.76C201.052 254.669 195.346 253.475 189.592 252.174L202.548 221.525L180.068 169.471L173.331 200.211L151.751 242.187C115.742 231.255 84.6868 217.528 62.1052 203.152C58.8809 190.777 57.1475 177.787 57.1475 164.385C57.1475 80.7815 123.991 13.0079 206.446 13.0079ZM353.775 141.693C356.191 158.172 355.923 174.975 352.969 191.381L319.227 145.445L353.775 141.693ZM72.1271 230.537C72.1271 230.537 193.315 290.477 299.056 282.247C299.056 282.247 248.467 323.666 182.973 314.632C114.092 305.128 72.1271 230.537 72.1271 230.537Z" fill="white"/>
</svg>
