<svg width="544" height="81" viewBox="0 0 544 81" fill="none" xmlns="http://www.w3.org/2000/svg">
<path d="M543.178 14.1282L542.639 20.1554H528.674C527.592 20.1554 526.628 20.6499 525.789 21.6372C524.949 22.6314 524.466 23.9065 524.349 25.4624L520.653 67.6614C520.413 70.0616 520.955 71.8898 522.275 73.1493C523.358 74.1711 524.827 74.6191 526.692 74.5002C528.493 74.3796 530.098 73.6903 531.509 72.4308C532.922 71.1695 533.719 69.5826 533.899 67.6614H539.932C539.632 71.1402 538.117 74.1383 535.382 76.6591C532.649 79.1782 529.513 80.4378 525.969 80.4378C523.207 80.4378 521.285 80.3465 520.206 80.1673C516.781 79.6297 513.986 78.3098 511.828 76.2077C509.425 73.8695 508.37 71.0213 508.674 67.6614L512.183 26.9959C512.546 22.9743 514.257 19.766 517.321 17.3675C520.206 15.2068 523.628 14.1282 527.592 14.1282H543.178Z" fill="white"/>
<path d="M496.782 26.3629C496.901 24.6846 496.419 23.2304 495.341 22.0019C494.257 20.7716 492.875 20.1548 491.195 20.1548C489.511 20.1548 488.012 20.7716 486.69 22.0019C485.367 23.2304 484.618 24.6846 484.438 26.3629L480.744 68.2914C480.563 69.9731 481.026 71.4256 482.138 72.6541C483.25 73.8844 484.675 74.4995 486.419 74.4995C488.16 74.4995 489.692 73.9016 491.015 72.7007C492.335 71.5014 493.055 70.0317 493.177 68.2914L496.782 26.3629ZM508.674 28.0722L505.25 66.4925C504.889 70.4504 503.177 73.7207 500.117 76.2984C496.87 79.057 492.786 80.4388 487.861 80.4388H483.897C479.033 80.4388 475.215 79.057 472.454 76.2984C469.752 73.7207 468.579 70.4504 468.94 66.4925L472.275 28.0722C472.635 24.1143 474.423 20.8009 477.635 18.1319C480.846 15.4629 484.887 14.1276 489.752 14.1276H493.628C498.491 14.1276 502.306 15.4629 505.072 18.1319C507.831 20.8009 509.035 24.1143 508.674 28.0722Z" fill="white"/>
<path d="M465.518 28.3416L461.914 71.0799C461.734 73.2406 462.637 74.3503 464.619 74.4088L464.077 80.4378H459.122C456.177 80.4378 453.836 79.659 452.093 78.0979C450.351 76.5403 449.6 74.1986 449.843 71.0799L453.537 27.6248C453.955 22.945 452.423 20.6051 448.941 20.6051H443.715L438.399 80.4378H426.327L431.013 27.6248C431.43 22.945 429.841 20.6051 426.237 20.6051H421.011L415.787 80.4378H403.714L409.028 20.1554H405.516L406.056 14.1282H449.481C454.226 14.1282 458.101 15.2982 461.103 17.6363C464.405 20.214 465.879 23.7824 465.518 28.3416Z" fill="white"/>
<path d="M408.582 5.49127L392.27 13.0485L389.658 7.65025L406.056 -6.10352e-05L408.582 5.49127ZM403.442 14.1289L402.904 20.1561H390.742C388.997 20.1561 387.465 20.7712 386.145 22.0015C384.825 23.23 384.102 24.686 383.985 26.3625L382.453 44.2683H397.498L397.044 50.2973H381.911L380.289 68.291C380.108 69.9727 380.574 71.4269 381.685 72.6537C382.798 73.884 384.223 74.5008 385.967 74.5008H398.128L397.588 80.4384H381.19C377.346 80.4384 374.18 79.0738 371.685 76.3428C369.195 73.6135 368.129 70.3311 368.488 66.4921L371.82 28.0717C372.182 24.2363 373.849 20.9504 376.823 18.2228C379.794 15.4935 383.202 14.1289 387.049 14.1289H403.442Z" fill="white"/>
<path d="M370.56 14.2175L370.021 20.1551H361.372L356.146 80.4392H344.076L349.388 20.1551H340.74L341.282 14.2175H370.56Z" fill="white"/>
<path d="M335.785 14.1282L330.831 71.0799C330.65 73.3009 331.642 74.4088 333.804 74.4088L333.263 80.4378H328.128C325.181 80.4378 322.843 79.6417 321.101 78.0548C319.358 76.4662 318.606 74.1383 318.849 71.0799L320.65 50.2966H309.209L306.594 80.4378H294.521L299.837 20.1554H296.416L296.956 14.1282H312.36L309.746 44.2677H321.101L323.714 14.1282H335.785Z" fill="white"/>
<path d="M290.198 14.1282L285.332 70.3614V71.2591C285.332 73.3612 286.595 74.4088 289.116 74.4088L288.578 80.4378H283.262C279.956 80.4378 277.372 79.5676 275.513 77.8291C272.33 79.5676 268.876 80.4378 265.149 80.4378C261.247 80.4378 257.913 79.4798 255.153 77.5586C252.026 75.3996 250.468 72.4308 250.468 68.6522V67.6614L254.611 20.1554H251.369L251.911 14.2178H267.133L262.539 66.9395V67.9319C262.539 71.9518 264.192 73.9591 267.496 73.9591C269.237 73.9591 270.679 73.1803 271.819 71.621C272.837 70.2391 273.41 68.6815 273.533 66.9395L278.032 14.1282H290.198Z" fill="white"/>
<path d="M236.23 26.3629C236.411 24.6243 236.051 23.1563 235.152 21.9536C234.249 20.7561 232.957 20.1548 231.275 20.1548C229.653 20.1548 228.302 20.7561 227.222 21.9536C226.14 23.1563 225.509 24.6243 225.331 26.3629L223.259 49.7584H234.16L236.23 26.3629ZM248.125 28.0722L244.339 71.0793C244.16 73.24 245.031 74.3513 246.953 74.4099L246.413 80.4388H241.639C238.635 80.4388 236.29 79.6893 234.612 78.1885C232.747 76.5103 231.965 74.1394 232.267 71.0793L233.618 55.7856H222.717L220.555 80.4388H208.574L213.167 28.0722C213.587 23.2752 215.902 19.6482 220.105 17.186C223.469 15.1476 227.37 14.1276 231.818 14.1276C236.263 14.1276 240.014 15.1476 243.08 17.186C246.862 19.7051 248.544 23.3372 248.125 28.0722Z" fill="white"/>
<path d="M206.953 14.1282L202.088 70.3614V71.2591C202.088 73.3612 203.349 74.4088 205.87 74.4088L205.333 80.4378H200.017C196.711 80.4378 194.127 79.5676 192.269 77.8291C189.085 79.5676 185.628 80.4378 181.904 80.4378C178.002 80.4378 174.667 79.4798 171.908 77.5586C168.781 75.3996 167.222 72.4308 167.222 68.6522V67.6614L171.364 20.1554H168.122L168.664 14.2178H183.889L179.294 66.9395V67.9319C179.294 71.9518 180.945 73.9591 184.247 73.9591C185.99 73.9591 187.432 73.1803 188.575 71.621C189.593 70.2391 190.164 68.6815 190.288 66.9395L194.788 14.1282H206.953Z" fill="white"/>
<path d="M165.24 14.1282L164.701 20.1554H150.735C149.653 20.1554 148.692 20.6499 147.85 21.6372C147.011 22.6314 146.528 23.9065 146.409 25.4624L142.717 67.6614C142.477 70.0616 143.014 71.8898 144.339 73.1493C145.419 74.1711 146.891 74.6191 148.75 74.5002C150.552 74.3796 152.162 73.6903 153.571 72.4308C154.981 71.1695 155.783 69.5826 155.959 67.6614H161.996C161.694 71.1402 160.176 74.1383 157.445 76.6591C154.712 79.1782 151.573 80.4378 148.029 80.4378C145.27 80.4378 143.348 80.3465 142.265 80.1673C138.842 79.6297 136.048 78.3098 133.887 76.2077C131.483 73.8695 130.432 71.0213 130.734 67.6614L134.247 26.9959C134.608 22.9743 136.319 19.766 139.384 17.3675C142.265 15.2068 145.69 14.1282 149.653 14.1282H165.24Z" fill="white"/>
<path d="M101.964 27.3585L98.1314 70.2629C97.9445 72.4304 98.8469 73.5455 100.841 73.6045L100.281 79.6566H95.2341C92.1802 79.6566 89.7814 78.9045 88.0383 77.3984C86.0426 75.713 85.2016 73.3336 85.514 70.2629L89.4396 27.3585C89.6875 24.89 89.3299 22.9633 88.3643 21.5773C87.3983 20.1933 86.1681 19.5001 84.6734 19.5001L79.2518 19.5904L73.8315 79.6566H61.3083L66.7287 19.1389H62.9904L63.5511 13.0871H85.2332C90.2179 13.0871 94.2672 14.2612 97.3838 16.6101C100.872 19.1995 102.399 22.7831 101.964 27.3585Z" fill="white"/>
<path d="M46.3551 25.3713C46.542 23.6863 46.0581 22.2256 44.906 20.9905C43.7522 19.7571 42.2737 19.1389 40.4671 19.1389H36.5415L34.1119 45.875H38.0371C39.781 45.875 41.3384 45.2581 42.7098 44.0234C44.0795 42.79 44.8595 41.3293 45.0464 39.6426L46.3551 25.3713ZM58.5979 27.0876L57.6638 37.9263C57.3511 41.7808 55.6541 45.0622 52.5699 47.772C49.4862 50.4817 45.9489 51.8364 41.9627 51.8364H33.5508L31.1212 79.6567H18.5977L24.1114 19.1389H20.467L21.0273 13.0872H45.4202C49.4073 13.0872 52.6775 14.4575 55.2334 17.1966C57.788 19.9377 58.9094 23.2347 58.5979 27.0876Z" fill="white"/>
<path d="M18.5045 13.0871L12.5235 79.6566H0L5.98143 13.0871H18.5045Z" fill="white"/>
</svg>
